<?xml version="1.0" encoding="UTF-8"?>
<svg id="Layer_2" data-name="Layer 2" xmlns="http://www.w3.org/2000/svg" viewBox="0 0 155.48 155.92">
  <defs>
    <style>
      .cls-1 {
        fill: #fff4e2;
        stroke-width: 0px;
      }

      .cls-2 {
        fill: #442d1f;
        stroke: #fff;
        stroke-miterlimit: 10;
        stroke-width: .75px;
      }
    </style>
  </defs>
  <g id="Layer_1-2" data-name="Layer 1">
    <g>
      <ellipse class="cls-2" cx="77.74" cy="77.96" rx="77.37" ry="77.58"/>
      <path class="cls-1" d="m109.72,46.39h-63.82l-12.16,14.99h2.49v11.72h3.58c0-4.56,2.46-7.05,6.01-7.05s5.97,2.69,5.97,7.05h7.36c1.9-1.64,4.57-4.16,9.06-5.73,3.6-1.26,6.5-1.48,9.59-1.48s5.99.21,9.59,1.48c4.5,1.58,7.16,4.1,9.06,5.73h7.36c0-4.36,2.57-7.05,5.97-7.05s6.01,2.48,6.01,7.05h3.58v-11.72h2.49l-12.16-14.99Z"/>
      <path class="cls-1" d="m77.81,69.69l-46.24,22.77s13.48,28.92,46.24,28.92,46.24-28.92,46.24-28.92l-46.24-22.77Z"/>
      <g>
        <path class="cls-1" d="m7.21,74.05c-.17.12-.35.11-.54-.02s-.25-.3-.18-.5l2.26-6.29c.07-.2.22-.29.45-.28.23.01.38.12.43.32,0,.02.04.13.11.33.15.39.4.58.75.58l9.25-.05-4.72-4.1-3.13.03c-.37,0-.7.14-1,.4l-.36.31c-.17.12-.35.11-.54-.02-.19-.14-.25-.3-.18-.5l2.26-6.29c.07-.2.22-.29.45-.28.23.01.38.12.43.32.02.03.04.09.06.18.03.09.04.15.05.2.12.33.33.54.64.61l9.17.21-7.05-6.13c-.34-.26-.66-.28-.96-.05l-.17.13c-.17.12-.35.11-.54-.02-.19-.14-.25-.3-.18-.48l.9-2.5c.07-.2.22-.29.46-.28.23.01.38.12.43.32.05.24.09.44.1.58.05.41.21.73.47.96l9.54,8.42c.29.27.37.59.24.96l-.82,2.28c-.14.38-.41.57-.81.57l-7.5.07,5.69,5.02c.29.27.38.59.25.95l-.83,2.3c-.13.37-.4.57-.8.59l-12.81.41c-.35.05-.67.2-.93.44-.02.02-.06.05-.11.1-.05.04-.1.08-.14.12-.04.03-.08.07-.12.09Z"/>
        <path class="cls-1" d="m29.31,54.97c-.11.16-.28.2-.5.13-.22-.08-.33-.22-.33-.43,0-.11.01-.27.04-.46.07-.39-.06-.7-.38-.92l-8.45-6.03c-.31-.22-.64-.24-1-.06-.17.09-.31.15-.42.18-.2.07-.37.01-.51-.17-.14-.18-.16-.35-.04-.52l6.57-9.2c.24-.33.54-.42.92-.27.66.25,1.3.52,1.9.83.41.21.55.49.41.84s-.45.51-.92.49c-.05,0-.2-.01-.47-.03-.27-.02-.44-.03-.51-.03-.08,0-.23.02-.46.06-.23.03-.42.1-.56.19s-.31.23-.52.42c-.2.19-.4.41-.59.68l-1.25,1.75c-.11.15-.15.3-.12.45.03.15.11.28.25.37l.13.09.16.11,3.37,2.4.82-1.15c.27-.38.45-.73.53-1.05.08-.31.08-.56.02-.75-.07-.19-.15-.36-.25-.51-.1-.15-.17-.3-.22-.44-.04-.14-.02-.29.07-.44.1-.17.32-.21.66-.13.34.08.7.24,1.08.49.38.25.74.52,1.08.82.34.3.59.59.76.88.17.29.19.51.07.67-.1.12-.22.18-.37.17-.14,0-.29-.03-.46-.07-.16-.04-.34-.07-.53-.07-.19,0-.42.09-.68.26-.26.18-.53.46-.81.84l-.82,1.15,3.98,2.84.13.09c.15.11.3.15.44.12.15-.02.27-.11.38-.26l1.48-2.07c.19-.27.34-.53.45-.78.11-.25.18-.46.23-.62s.05-.36,0-.59c-.04-.23-.07-.38-.09-.46-.02-.08-.08-.24-.19-.48-.1-.24-.16-.38-.18-.43-.17-.44-.12-.79.16-1.04.27-.25.58-.21.9.12.39.38.86.89,1.42,1.54.26.3.27.6.04.93l-6.81,9.54Z"/>
        <path class="cls-1" d="m34.46,41.81c-.36-.34-.54-.75-.52-1.21.01-.46.21-.86.6-1.2.37-.31.79-.49,1.25-.53.46-.04.92.01,1.38.15.46.14.93.26,1.41.37.48.11,1.01.12,1.58.02.57-.1,1.13-.35,1.68-.76.55-.41.92-.86,1.1-1.34.19-.48.14-.92-.12-1.32-.25-.38-.68-.56-1.28-.54-.6.02-1.28.17-2.03.45-.75.28-1.57.58-2.48.89-.91.31-1.78.58-2.62.8-.84.22-1.66.28-2.47.16-.81-.12-1.48-.46-2.01-1.02-.92-.97-1.22-2.13-.9-3.48.32-1.35,1.17-2.66,2.53-3.93,1.32-1.25,2.63-2.06,3.94-2.44,1.31-.38,2.32-.36,3.02.08.67.42.92.93.77,1.54s-.58,1.05-1.26,1.32c-.45.17-.95.23-1.5.18-.55-.05-1.03-.15-1.44-.29-.41-.14-.88-.2-1.4-.16-.52.03-1.01.21-1.46.53-.63.46-1.04.97-1.23,1.53-.18.56-.1,1.01.24,1.33.3.28.77.37,1.43.28.65-.09,1.36-.3,2.12-.63s1.6-.65,2.51-.97,1.79-.6,2.61-.82c.83-.22,1.64-.27,2.43-.13.79.14,1.43.5,1.93,1.08.88,1.03,1.14,2.24.76,3.65-.38,1.41-1.29,2.79-2.73,4.16-1.52,1.44-3,2.36-4.45,2.78-1.45.42-2.58.25-3.39-.51Z"/>
        <path class="cls-1" d="m41.95,24.52c-.02.47-.21.77-.56.89-.35.12-.61-.05-.79-.49-.13-.29-.36-.94-.69-1.95-.09-.39.02-.68.35-.88l10.41-6.24c.33-.2.64-.16.94.1.74.77,1.2,1.28,1.4,1.53.31.36.33.67.06.93-.27.25-.62.28-1.05.08-.06-.02-.18-.09-.35-.19-.18-.1-.3-.17-.39-.2-.08-.03-.21-.08-.39-.15-.18-.06-.33-.09-.46-.08s-.3.02-.49.04c-.2.02-.4.07-.61.16s-.44.21-.69.36l-.51.3,5.75,9.58c.18.3.48.46.89.48.03,0,.16,0,.4.01.21.01.34.13.4.36.06.23,0,.39-.18.5l-5.22,3.13c-.17.1-.34.08-.52-.08s-.22-.33-.14-.52c.04-.09.11-.22.22-.41.22-.33.22-.66.02-1l-5.75-9.58-.49.29c-.28.17-.52.35-.72.54-.2.19-.35.35-.45.49-.1.14-.18.32-.24.54-.06.22-.09.37-.1.46s-.01.26-.01.51c0,.25,0,.41-.01.48Z"/>
        <path class="cls-1" d="m64.44,25.3c-.2.03-.34-.06-.44-.27-.1-.21-.07-.39.08-.53.08-.08.2-.17.36-.29.33-.22.46-.52.4-.92l-1.56-10.76c-.05-.36-.27-.62-.65-.76-.18-.07-.32-.13-.42-.18-.18-.08-.26-.23-.23-.46.03-.23.15-.36.34-.39l5.77-.86c2.57-.39,4.61-.4,6.11-.04,1.5.36,2.33,1.12,2.5,2.29.22,1.49-.89,2.7-3.32,3.63,1.66.02,2.95.29,3.88.78.92.5,1.46,1.28,1.61,2.34.2,1.4-.42,2.58-1.87,3.53-1.45.95-3.55,1.61-6.31,2l-6.26.89Zm3.65-13.25l.46,3.16.02.16c.02.17.1.3.23.4.13.09.27.13.44.1,2.04-.31,2.94-1.26,2.71-2.86-.12-.82-.45-1.39-1-1.72-.55-.32-1.35-.42-2.41-.28-.17.02-.3.1-.4.23-.09.13-.13.28-.1.46l.02.16.03.2Zm1.53,10.55l.02.16c.03.18.1.32.23.41.12.09.27.12.44.1,1.46-.21,2.49-.62,3.1-1.23.61-.61.84-1.44.68-2.51-.15-1.05-.61-1.78-1.37-2.19-.76-.41-1.86-.5-3.31-.28-.17.02-.3.1-.4.22-.1.12-.13.27-.1.45l.02.16.68,4.72Z"/>
        <path class="cls-1" d="m81.35,9.92c-.14-.15-.16-.33-.05-.53.11-.21.26-.29.45-.25l6.21,1.22c2.72.53,4.78,1.3,6.19,2.32,1.41,1.02,1.97,2.21,1.7,3.57-.34,1.69-1.78,2.62-4.34,2.81.84.33,1.41,1.23,1.69,2.71l.64,2.54c.1.38.31.67.65.87l.24.19c.14.15.16.33.05.53-.11.21-.27.29-.47.25l-6.63-1.32c-.21-.04-.32-.18-.34-.41-.02-.23.06-.39.26-.47.04-.02.11-.04.21-.07.09-.03.15-.05.18-.07.37-.1.52-.35.45-.73l-.04-.13h.02s-.33-1.57-.33-1.57c-.24-1.02-.52-1.73-.85-2.11-.33-.38-.77-.63-1.32-.75l-.41-.08-.77,3.84c-.07.36.04.68.33.95.02.02.12.11.29.28.14.15.16.33.05.53-.11.21-.27.29-.47.25l-5.97-1.19c-.21-.04-.32-.18-.34-.41-.02-.23.06-.39.25-.47.04-.02.19-.07.43-.15.32-.08.55-.3.67-.65l2.04-10.24c.08-.37-.04-.69-.35-.95-.12-.09-.23-.19-.34-.29Zm5.43,2.19l-.04.19-.84,4.23-.03.15c-.03.17,0,.32.08.45.09.13.21.21.38.25,1.44.29,2.55.27,3.32-.06.77-.33,1.25-1,1.45-2,.21-1.03.02-1.85-.56-2.47s-1.59-1.07-3.03-1.36c-.17-.05-.31-.03-.45.06s-.21.22-.25.4l-.03.15Z"/>
        <path class="cls-1" d="m94.69,26.34c-.18-.1-.25-.27-.19-.5.05-.23.18-.35.39-.37.31-.02.5-.02.57-.01.44.02.79-.07,1.04-.27l9.65-7.64.21-1.29c.03-.18.09-.29.2-.34.11-.04.23-.02.38.08l3.41,2.21c.32.21.45.52.41.91l-1.86,13.11c-.04.37.04.73.25,1.07.02.04.06.11.1.2s.08.15.1.2c.09.19.05.36-.12.52-.17.16-.34.19-.53.09l-5.82-3.31c-.17-.1-.23-.26-.18-.49.05-.23.18-.35.39-.37.05,0,.11-.01.2-.02s.15-.02.2-.02c.39-.08.62-.29.69-.62l.34-1.98-5.14-2.92-1.48,1.2-.15.14c-.32.27-.4.58-.23.93l.1.19c.09.19.05.36-.12.52-.17.16-.34.19-.51.1l-2.31-1.31Zm11.15-6.94l-5.47,4.39,4.35,2.47,1.12-6.87Z"/>
        <path class="cls-1" d="m109.03,34.74c-.14-.14-.16-.31-.05-.51s.26-.29.47-.26c.11.02.26.05.45.1.37.12.7.04.97-.25l7.2-7.54c.26-.28.33-.6.2-.98-.06-.18-.1-.33-.12-.44-.04-.19.03-.34.21-.46.18-.12.35-.13.51-.03l3.75,3.58c.29.27.4.6.34.98l-1.75,11.51,5.58-5.84c.26-.28.33-.6.2-.98-.06-.18-.1-.33-.12-.44-.04-.2.04-.36.24-.48s.37-.11.52.03l1.92,1.84c.15.15.17.32.07.53-.11.21-.26.29-.47.26-.19-.03-.32-.06-.39-.07-.39-.08-.72,0-.97.27l-.14.14-7.06,7.39c-.25.27-.33.59-.23.98.02.07.05.2.09.39.05.21-.01.39-.2.52-.18.13-.37.11-.57-.08l-3.08-2.94c-.28-.27-.39-.6-.33-1l2.02-12.89-6.41,6.71c-.25.27-.33.59-.23.98.02.07.05.2.09.39.04.2-.04.36-.24.48-.2.12-.38.1-.53-.04l-1.92-1.84Z"/>
        <path class="cls-1" d="m125.61,40.96c1.8-1.36,3.65-1.87,5.53-1.51,1.88.35,3.54,1.54,4.97,3.58,1.02,1.45,1.62,2.82,1.82,4.09.19,1.28-.03,2.37-.66,3.28-.18.27-.42.51-.71.72-.29.21-.62.36-.96.45s-.71.07-1.09-.06c-.38-.13-.73-.39-1.04-.76-.58-.69-.84-1.39-.78-2.11s.47-1.31,1.24-1.77c.96-.58,1.47-1.19,1.53-1.83.06-.64-.19-1.27-.75-1.89-1.25-1.39-3.42-.7-6.51,2.07-2.31,2.07-3.02,4.09-2.1,6.05.51,1.12,1.29,1.84,2.33,2.18,1.04.34,2.15.21,3.33-.37.22-.1.4-.18.54-.22s.31-.05.5-.01c.19.04.33.15.45.33.27.45.04.87-.7,1.26-1.54.82-3.03,1-4.47.51-1.44-.48-2.76-1.58-3.97-3.3-1.4-1.99-1.93-3.93-1.61-5.82.33-1.89,1.37-3.5,3.14-4.85Z"/>
        <path class="cls-1" d="m140.71,51.79c.04-.2.18-.32.41-.35s.39.05.46.23l2.39,5.62c.08.19.03.36-.15.51s-.36.17-.53.06c-.16-.1-.27-.18-.33-.22-.33-.23-.66-.28-1-.13l-.18.08-3.86,1.64,1.9,4.46,4.04-1.72c.36-.18.55-.46.56-.84.02-.21.04-.36.06-.46.05-.19.19-.3.42-.33.23-.03.39.05.46.23l2.39,5.6c.08.19.03.37-.14.52-.18.15-.35.18-.53.06-.16-.1-.27-.18-.34-.24-.33-.21-.66-.25-.99-.11l-.18.08-9.41,4.01c-.33.14-.53.4-.6.79,0,.09-.03.23-.06.41-.04.2-.18.32-.41.34-.23.02-.39-.06-.47-.26l-2.39-5.6c-.08-.18-.03-.35.15-.49s.35-.17.53-.07c.08.05.2.14.37.27.28.25.61.31,1,.18l4.46-1.9-1.9-4.46-4.46,1.9c-.34.14-.54.41-.6.81-.01.08-.03.21-.07.39-.04.2-.18.32-.41.35-.23.03-.39-.06-.47-.25l-2.39-5.62c-.08-.18-.03-.35.15-.49.18-.15.36-.17.53-.06.1.06.22.15.37.27.3.26.62.31.99.16l9.59-4.08c.35-.15.54-.42.57-.82.02-.19.04-.34.06-.46Z"/>
      </g>
      <g>
        <path class="cls-1" d="m21.9,107.74c1.83-1.57,3.76-2.22,5.79-1.97s3.87,1.42,5.52,3.49c1.18,1.48,1.91,2.89,2.2,4.24.29,1.35.12,2.52-.49,3.53-.17.3-.41.57-.71.81-.3.24-.63.42-.99.54-.36.12-.75.12-1.17,0-.42-.12-.8-.36-1.16-.74-.66-.69-.98-1.42-.97-2.19.01-.77.41-1.43,1.2-1.96.98-.68,1.49-1.36,1.51-2.05.02-.69-.28-1.34-.92-1.96-1.42-1.4-3.68-.52-6.8,2.62-2.33,2.36-2.95,4.55-1.85,6.58.62,1.16,1.49,1.88,2.62,2.17,1.13.29,2.3.09,3.51-.61.22-.12.41-.21.56-.27.15-.06.33-.07.53-.04.2.03.37.13.49.32.32.46.09.93-.67,1.39-1.59.98-3.16,1.25-4.72.83-1.56-.42-3.04-1.51-4.44-3.26-1.61-2.03-2.31-4.05-2.08-6.09.23-2.03,1.24-3.82,3.04-5.36Z"/>
        <path class="cls-1" d="m35.58,132.85c-2.15-1.51-3.41-3.26-3.77-5.23s.16-3.96,1.56-5.95c1.4-1.99,3.09-3.16,5.07-3.49,1.98-.33,4.05.25,6.2,1.77,2.15,1.51,3.41,3.26,3.77,5.24.36,1.98-.16,3.97-1.56,5.96-1.39,2-3.08,3.16-5.06,3.49-1.98.32-4.06-.27-6.22-1.8Zm7.69-12.28c-1.78-.95-3.71.53-5.79,4.43-.99,1.84-1.55,3.38-1.69,4.63-.14,1.25.26,2.12,1.2,2.63.94.51,1.89.36,2.83-.43s1.92-2.13,2.92-3.99c.98-1.86,1.55-3.41,1.69-4.65.15-1.24-.25-2.11-1.18-2.61Z"/>
        <path class="cls-1" d="m46.88,139.77c-.2-.06-.3-.22-.3-.46,0-.25.11-.41.32-.47.11-.04.27-.08.48-.12.41-.06.68-.3.81-.7l3.67-10.67c.06-.33-.05-.62-.31-.86-.15-.15-.25-.27-.33-.36-.14-.17-.14-.36,0-.57s.31-.28.51-.22l5.24,1.6c.39.12.61.39.65.81l.78,8.82,5.28-6.97c.27-.33.61-.43,1-.31l4.86,1.48c.21.07.32.22.33.47,0,.25-.1.41-.31.48-.19.06-.34.1-.43.11-.37.09-.62.32-.75.67l-2.73,10.85c-.11.36-.03.71.23,1.04.07.06.17.17.29.33.14.17.13.36,0,.57-.14.21-.32.28-.54.21l-6.21-1.89c-.2-.06-.3-.21-.3-.46,0-.25.1-.41.3-.48.1-.03.25-.07.48-.12.4-.05.67-.29.83-.69l2.32-9.28-6.99,9.4c-.25.33-.57.44-.95.32l-.94-.29c-.39-.12-.61-.39-.65-.81l-.79-11.83-3.12,9.1c-.14.35-.05.7.25,1.04.05.06.15.17.27.33.14.17.14.36,0,.57s-.31.28-.53.21l-2.71-.83Z"/>
        <path class="cls-1" d="m71.12,146.16c-.21,0-.35-.1-.44-.34-.08-.24-.03-.42.15-.55.09-.07.23-.16.41-.27.37-.2.55-.51.53-.93l-.08-11.28c-.06-.33-.25-.57-.58-.71-.19-.09-.33-.17-.43-.23-.19-.12-.25-.3-.19-.54.06-.24.19-.37.4-.37l5.48-.23c.41-.02.7.17.89.55l3.66,8.06,2.67-8.33c.15-.4.43-.61.84-.62l5.08-.22c.22,0,.38.1.47.34.09.23.04.42-.13.55-.16.12-.29.2-.37.25-.31.21-.48.5-.49.88l1.02,11.14c.02.38.21.68.56.9.09.04.21.11.39.21.19.12.25.3.18.54s-.21.37-.44.38l-6.48.28c-.21,0-.35-.1-.43-.34-.08-.23-.04-.42.12-.55.08-.06.22-.15.41-.27.36-.18.54-.49.55-.93l-.89-9.53-3.48,11.18c-.12.4-.39.6-.79.62l-.99.04c-.41.02-.7-.17-.88-.55l-4.67-10.9.07,9.62c-.01.38.18.68.58.9.07.04.19.11.37.21.19.12.25.3.19.54-.06.24-.2.37-.43.38l-2.83.12Z"/>
        <path class="cls-1" d="m103.53,141.46c-2.47.92-4.62.96-6.44.14-1.83-.82-3.17-2.37-4.01-4.66-.85-2.28-.85-4.34,0-6.16.85-1.82,2.5-3.19,4.97-4.11,2.47-.92,4.62-.96,6.46-.14,1.84.83,3.18,2.38,4.03,4.66.86,2.28.86,4.33,0,6.15-.86,1.82-2.52,3.19-5,4.11Zm-5.77-13.29c-1.79.93-1.66,3.36.37,7.28.96,1.85,1.91,3.19,2.86,4.01.95.82,1.9.99,2.85.5.95-.49,1.37-1.35,1.25-2.58-.12-1.23-.67-2.79-1.63-4.67-.98-1.86-1.93-3.21-2.88-4.03s-1.88-.99-2.82-.51Z"/>
        <path class="cls-1" d="m115.15,136.09c-.17.12-.35.11-.55-.04-.2-.15-.26-.33-.19-.54.04-.11.1-.27.19-.45.19-.37.17-.73-.09-1.06l-6.65-8.9c-.24-.33-.57-.45-1-.38-.2.03-.37.05-.49.05-.2.01-.35-.09-.44-.3s-.08-.39.06-.54l4.43-3.3c.34-.25.7-.31,1.09-.19l11.79,3.89-5.15-6.9c-.24-.33-.57-.45-.99-.38-.21.03-.37.05-.49.05-.22,0-.38-.1-.46-.34-.09-.23-.04-.41.12-.54l2.27-1.7c.18-.13.37-.13.57.02.2.15.26.33.19.54-.07.19-.12.32-.15.4-.16.4-.12.75.12,1.07l.13.17,6.52,8.73c.23.31.56.45.99.41.08,0,.22-.02.42-.03.23-.02.4.08.51.3.11.22.05.41-.19.59l-3.63,2.71c-.34.25-.71.31-1.1.17l-13.2-4.41,5.92,7.93c.23.31.56.45.99.41.08,0,.22-.02.42-.03.22,0,.38.1.46.34s.04.42-.14.55l-2.27,1.7Z"/>
        <path class="cls-1" d="m128.23,120.99c-.44-.3-.7-.69-.76-1.18-.07-.49.07-.94.43-1.36.34-.4.74-.65,1.22-.78.48-.12.97-.15,1.47-.08s1.02.11,1.55.15c.53.03,1.08-.05,1.67-.25s1.13-.57,1.63-1.09c.51-.53.81-1.06.92-1.6s0-1-.36-1.37c-.33-.35-.81-.47-1.44-.34-.63.13-1.32.4-2.05.83s-1.55.88-2.46,1.37-1.78.92-2.62,1.3c-.84.38-1.7.58-2.57.59-.87.02-1.64-.23-2.3-.72-1.14-.86-1.65-2.03-1.55-3.5.11-1.47.77-3,1.98-4.57,1.17-1.54,2.41-2.63,3.72-3.26s2.38-.78,3.19-.44c.77.32,1.13.82,1.08,1.49-.06.67-.42,1.2-1.1,1.61-.44.26-.96.41-1.54.45-.58.04-1.11.02-1.57-.05-.46-.08-.96-.05-1.5.07-.54.12-1.02.4-1.45.81-.59.59-.93,1.2-1.02,1.82s.07,1.08.49,1.36c.36.24.88.25,1.55.04.67-.21,1.38-.55,2.12-1.03s1.57-.96,2.47-1.46,1.77-.94,2.61-1.32c.83-.38,1.67-.57,2.53-.56.86,0,1.59.27,2.22.8,1.11.93,1.58,2.16,1.43,3.71-.15,1.54-.87,3.16-2.14,4.85-1.34,1.77-2.74,3.01-4.2,3.7s-2.67.71-3.65.05Z"/>
      </g>
    </g>
  </g>
</svg>